<mxfile host="app.diagrams.net" modified="2022-05-24T22:59:24.024Z" agent="5.0 (Windows NT 10.0; Win64; x64) AppleWebKit/537.36 (KHTML, like Gecko) Chrome/101.0.4951.67 Safari/537.36" etag="d0z3QhvY0lA9eUknx11c" version="18.1.2" type="github">
  <diagram id="pV1UsLXD76Uy4-o15l10" name="Page-1">
    <mxGraphModel dx="667" dy="371" grid="1" gridSize="10" guides="1" tooltips="1" connect="1" arrows="1" fold="1" page="1" pageScale="1" pageWidth="850" pageHeight="1100" math="0" shadow="0">
      <root>
        <mxCell id="0" />
        <mxCell id="1" parent="0" />
        <mxCell id="sOp1A83OYoMBxLgUxcqA-18" value="" style="rounded=0;whiteSpace=wrap;html=1;fillColor=#dae8fc;strokeColor=#6c8ebf;" vertex="1" parent="1">
          <mxGeometry x="70" y="650" width="500" height="150" as="geometry" />
        </mxCell>
        <mxCell id="sOp1A83OYoMBxLgUxcqA-24" value="" style="rounded=0;whiteSpace=wrap;html=1;fillColor=#dae8fc;strokeColor=#6c8ebf;" vertex="1" parent="1">
          <mxGeometry x="84" y="660" width="470" height="60" as="geometry" />
        </mxCell>
        <mxCell id="sOp1A83OYoMBxLgUxcqA-1" value="Plan&lt;br&gt;1. General Requirements&lt;br&gt;2. Specific Requirements&lt;br&gt;3. Component Architecture&lt;br&gt;4. Data Entities&lt;br&gt;5. Data APIs&lt;br&gt;6. Data Store&lt;br&gt;7. Infinite Scroll&lt;br&gt;8. Optimizations&lt;br&gt;9. Accessibility" style="rounded=0;whiteSpace=wrap;html=1;align=left;fillColor=#fff2cc;strokeColor=#d6b656;" vertex="1" parent="1">
          <mxGeometry x="70" y="40" width="160" height="180" as="geometry" />
        </mxCell>
        <mxCell id="sOp1A83OYoMBxLgUxcqA-2" value="&lt;b&gt;General Requirements&lt;/b&gt;" style="rounded=0;whiteSpace=wrap;html=1;fillColor=#d5e8d4;strokeColor=#82b366;" vertex="1" parent="1">
          <mxGeometry x="290" y="40" width="170" height="30" as="geometry" />
        </mxCell>
        <mxCell id="sOp1A83OYoMBxLgUxcqA-3" value="1.View posts (infinite scrollable feed, with posts acc to users subscriptions)&lt;br&gt;&lt;div style=&quot;&quot;&gt;&lt;span style=&quot;background-color: initial;&quot;&gt;2.Create posts&lt;/span&gt;&lt;/div&gt;&lt;div style=&quot;&quot;&gt;&lt;span style=&quot;background-color: initial;&quot;&gt;3.View Comments&lt;/span&gt;&lt;/div&gt;&lt;div style=&quot;&quot;&gt;&lt;span style=&quot;background-color: initial;&quot;&gt;4. Add comments&lt;/span&gt;&lt;/div&gt;&lt;div style=&quot;&quot;&gt;&lt;span style=&quot;background-color: initial;&quot;&gt;5. Like and share&lt;/span&gt;&lt;/div&gt;&lt;div style=&quot;&quot;&gt;&lt;span style=&quot;background-color: initial;&quot;&gt;&lt;br&gt;&lt;/span&gt;&lt;/div&gt;" style="rounded=0;whiteSpace=wrap;html=1;align=left;fillColor=#d5e8d4;strokeColor=#82b366;" vertex="1" parent="1">
          <mxGeometry x="290" y="80" width="170" height="170" as="geometry" />
        </mxCell>
        <mxCell id="sOp1A83OYoMBxLgUxcqA-4" value="&lt;b&gt;Special Requirements&lt;/b&gt;" style="rounded=0;whiteSpace=wrap;html=1;fillColor=#f8cecc;strokeColor=#b85450;" vertex="1" parent="1">
          <mxGeometry x="480" y="40" width="170" height="30" as="geometry" />
        </mxCell>
        <mxCell id="sOp1A83OYoMBxLgUxcqA-5" value="1. Features to be available on range of devices&lt;br&gt;2. Features need to be accessible to all" style="rounded=0;whiteSpace=wrap;html=1;align=left;fillColor=#f8cecc;strokeColor=#b85450;" vertex="1" parent="1">
          <mxGeometry x="480" y="80" width="170" height="170" as="geometry" />
        </mxCell>
        <mxCell id="sOp1A83OYoMBxLgUxcqA-6" value="&lt;b&gt;Component Architecture&lt;/b&gt;" style="rounded=0;whiteSpace=wrap;html=1;fillColor=#dae8fc;strokeColor=#6c8ebf;" vertex="1" parent="1">
          <mxGeometry x="80" y="290" width="160" height="30" as="geometry" />
        </mxCell>
        <mxCell id="sOp1A83OYoMBxLgUxcqA-7" value="" style="rounded=0;whiteSpace=wrap;html=1;fillColor=#dae8fc;strokeColor=#6c8ebf;" vertex="1" parent="1">
          <mxGeometry x="80" y="350" width="490" height="280" as="geometry" />
        </mxCell>
        <mxCell id="sOp1A83OYoMBxLgUxcqA-9" value="Avatar" style="ellipse;whiteSpace=wrap;html=1;aspect=fixed;fillColor=#dae8fc;strokeColor=#6c8ebf;" vertex="1" parent="1">
          <mxGeometry x="99" y="670" width="40" height="40" as="geometry" />
        </mxCell>
        <mxCell id="sOp1A83OYoMBxLgUxcqA-11" value="5h" style="rounded=1;whiteSpace=wrap;html=1;fillColor=#dae8fc;strokeColor=#6c8ebf;" vertex="1" parent="1">
          <mxGeometry x="494" y="680" width="30" height="20" as="geometry" />
        </mxCell>
        <mxCell id="sOp1A83OYoMBxLgUxcqA-12" value="Content&amp;nbsp;&lt;br&gt;Image/text" style="rounded=1;whiteSpace=wrap;html=1;fillColor=#dae8fc;strokeColor=#6c8ebf;" vertex="1" parent="1">
          <mxGeometry x="90" y="410" width="470" height="150" as="geometry" />
        </mxCell>
        <mxCell id="sOp1A83OYoMBxLgUxcqA-14" value="" style="rounded=0;whiteSpace=wrap;html=1;fillColor=#dae8fc;strokeColor=#6c8ebf;" vertex="1" parent="1">
          <mxGeometry x="90" y="570" width="470" height="50" as="geometry" />
        </mxCell>
        <mxCell id="sOp1A83OYoMBxLgUxcqA-15" value="Like" style="rounded=1;whiteSpace=wrap;html=1;fillColor=#dae8fc;strokeColor=#6c8ebf;" vertex="1" parent="1">
          <mxGeometry x="100" y="582" width="60" height="25" as="geometry" />
        </mxCell>
        <mxCell id="sOp1A83OYoMBxLgUxcqA-16" value="Comment" style="rounded=1;whiteSpace=wrap;html=1;fillColor=#dae8fc;strokeColor=#6c8ebf;" vertex="1" parent="1">
          <mxGeometry x="310" y="582" width="60" height="25" as="geometry" />
        </mxCell>
        <mxCell id="sOp1A83OYoMBxLgUxcqA-17" value="Share" style="rounded=1;whiteSpace=wrap;html=1;fillColor=#dae8fc;strokeColor=#6c8ebf;" vertex="1" parent="1">
          <mxGeometry x="490" y="582" width="60" height="25" as="geometry" />
        </mxCell>
        <mxCell id="sOp1A83OYoMBxLgUxcqA-19" value="Comment" style="rounded=1;whiteSpace=wrap;html=1;fillColor=#dae8fc;strokeColor=#6c8ebf;" vertex="1" parent="1">
          <mxGeometry x="151" y="677" width="331" height="30" as="geometry" />
        </mxCell>
        <mxCell id="sOp1A83OYoMBxLgUxcqA-35" value="Avatar" style="ellipse;whiteSpace=wrap;html=1;aspect=fixed;fillColor=#dae8fc;strokeColor=#6c8ebf;" vertex="1" parent="1">
          <mxGeometry x="102.5" y="360" width="40" height="40" as="geometry" />
        </mxCell>
        <mxCell id="sOp1A83OYoMBxLgUxcqA-36" value="John Doe" style="rounded=0;whiteSpace=wrap;html=1;align=left;fillColor=#dae8fc;strokeColor=#6c8ebf;" vertex="1" parent="1">
          <mxGeometry x="152.5" y="360" width="385" height="40" as="geometry" />
        </mxCell>
        <mxCell id="sOp1A83OYoMBxLgUxcqA-37" value="5h" style="rounded=1;whiteSpace=wrap;html=1;fillColor=#dae8fc;strokeColor=#6c8ebf;" vertex="1" parent="1">
          <mxGeometry x="497.5" y="370" width="30" height="20" as="geometry" />
        </mxCell>
        <mxCell id="sOp1A83OYoMBxLgUxcqA-38" value="" style="rounded=0;whiteSpace=wrap;html=1;fillColor=#dae8fc;strokeColor=#6c8ebf;" vertex="1" parent="1">
          <mxGeometry x="85" y="730" width="470" height="60" as="geometry" />
        </mxCell>
        <mxCell id="sOp1A83OYoMBxLgUxcqA-39" value="Avatar" style="ellipse;whiteSpace=wrap;html=1;aspect=fixed;fillColor=#dae8fc;strokeColor=#6c8ebf;" vertex="1" parent="1">
          <mxGeometry x="100" y="740" width="40" height="40" as="geometry" />
        </mxCell>
        <mxCell id="sOp1A83OYoMBxLgUxcqA-40" value="5h" style="rounded=1;whiteSpace=wrap;html=1;fillColor=#dae8fc;strokeColor=#6c8ebf;" vertex="1" parent="1">
          <mxGeometry x="495" y="750" width="30" height="20" as="geometry" />
        </mxCell>
        <mxCell id="sOp1A83OYoMBxLgUxcqA-41" value="Comment" style="rounded=1;whiteSpace=wrap;html=1;fillColor=#dae8fc;strokeColor=#6c8ebf;" vertex="1" parent="1">
          <mxGeometry x="152" y="747" width="331" height="30" as="geometry" />
        </mxCell>
        <mxCell id="sOp1A83OYoMBxLgUxcqA-42" value="" style="rounded=1;whiteSpace=wrap;html=1;fillColor=#dae8fc;strokeColor=#6c8ebf;" vertex="1" parent="1">
          <mxGeometry x="70" y="810" width="500" height="60" as="geometry" />
        </mxCell>
        <mxCell id="sOp1A83OYoMBxLgUxcqA-43" value="Comment Input" style="rounded=0;whiteSpace=wrap;html=1;fillColor=#dae8fc;strokeColor=#6c8ebf;" vertex="1" parent="1">
          <mxGeometry x="85" y="818" width="305" height="40" as="geometry" />
        </mxCell>
        <mxCell id="sOp1A83OYoMBxLgUxcqA-44" value="" style="rounded=0;whiteSpace=wrap;html=1;fillColor=#dae8fc;strokeColor=#6c8ebf;" vertex="1" parent="1">
          <mxGeometry x="390" y="818" width="170" height="40" as="geometry" />
        </mxCell>
        <mxCell id="sOp1A83OYoMBxLgUxcqA-45" value="" style="ellipse;whiteSpace=wrap;html=1;aspect=fixed;fillColor=#dae8fc;strokeColor=#6c8ebf;" vertex="1" parent="1">
          <mxGeometry x="410" y="825" width="30" height="30" as="geometry" />
        </mxCell>
        <mxCell id="sOp1A83OYoMBxLgUxcqA-46" value="" style="ellipse;whiteSpace=wrap;html=1;aspect=fixed;fillColor=#dae8fc;strokeColor=#6c8ebf;" vertex="1" parent="1">
          <mxGeometry x="505" y="823" width="30" height="30" as="geometry" />
        </mxCell>
        <mxCell id="sOp1A83OYoMBxLgUxcqA-55" style="edgeStyle=orthogonalEdgeStyle;rounded=0;orthogonalLoop=1;jettySize=auto;html=1;fillColor=#dae8fc;strokeColor=#6c8ebf;" edge="1" parent="1" source="sOp1A83OYoMBxLgUxcqA-47" target="sOp1A83OYoMBxLgUxcqA-52">
          <mxGeometry relative="1" as="geometry" />
        </mxCell>
        <mxCell id="sOp1A83OYoMBxLgUxcqA-57" style="edgeStyle=orthogonalEdgeStyle;rounded=0;orthogonalLoop=1;jettySize=auto;html=1;entryX=0.5;entryY=0;entryDx=0;entryDy=0;fillColor=#dae8fc;strokeColor=#6c8ebf;" edge="1" parent="1" source="sOp1A83OYoMBxLgUxcqA-47" target="sOp1A83OYoMBxLgUxcqA-54">
          <mxGeometry relative="1" as="geometry" />
        </mxCell>
        <mxCell id="sOp1A83OYoMBxLgUxcqA-62" style="edgeStyle=orthogonalEdgeStyle;rounded=0;orthogonalLoop=1;jettySize=auto;html=1;entryX=0.5;entryY=0;entryDx=0;entryDy=0;fillColor=#dae8fc;strokeColor=#6c8ebf;" edge="1" parent="1" source="sOp1A83OYoMBxLgUxcqA-47" target="sOp1A83OYoMBxLgUxcqA-53">
          <mxGeometry relative="1" as="geometry">
            <Array as="points">
              <mxPoint x="880" y="450" />
              <mxPoint x="960" y="450" />
            </Array>
          </mxGeometry>
        </mxCell>
        <mxCell id="sOp1A83OYoMBxLgUxcqA-64" value="" style="edgeStyle=orthogonalEdgeStyle;rounded=0;orthogonalLoop=1;jettySize=auto;html=1;fillColor=#dae8fc;strokeColor=#6c8ebf;" edge="1" parent="1" source="sOp1A83OYoMBxLgUxcqA-47" target="sOp1A83OYoMBxLgUxcqA-63">
          <mxGeometry relative="1" as="geometry">
            <Array as="points">
              <mxPoint x="830" y="440" />
              <mxPoint x="830" y="440" />
            </Array>
          </mxGeometry>
        </mxCell>
        <mxCell id="sOp1A83OYoMBxLgUxcqA-47" value="Post card" style="rounded=1;whiteSpace=wrap;html=1;fillColor=#dae8fc;strokeColor=#6c8ebf;" vertex="1" parent="1">
          <mxGeometry x="790" y="370" width="120" height="60" as="geometry" />
        </mxCell>
        <mxCell id="sOp1A83OYoMBxLgUxcqA-52" value="Posts" style="rounded=1;whiteSpace=wrap;html=1;fillColor=#dae8fc;strokeColor=#6c8ebf;" vertex="1" parent="1">
          <mxGeometry x="640" y="470" width="120" height="60" as="geometry" />
        </mxCell>
        <mxCell id="sOp1A83OYoMBxLgUxcqA-59" value="" style="edgeStyle=orthogonalEdgeStyle;rounded=0;orthogonalLoop=1;jettySize=auto;html=1;fillColor=#dae8fc;strokeColor=#6c8ebf;" edge="1" parent="1" source="sOp1A83OYoMBxLgUxcqA-53" target="sOp1A83OYoMBxLgUxcqA-58">
          <mxGeometry relative="1" as="geometry" />
        </mxCell>
        <mxCell id="sOp1A83OYoMBxLgUxcqA-53" value="Comment list" style="rounded=1;whiteSpace=wrap;html=1;fillColor=#dae8fc;strokeColor=#6c8ebf;" vertex="1" parent="1">
          <mxGeometry x="900" y="470" width="120" height="60" as="geometry" />
        </mxCell>
        <mxCell id="sOp1A83OYoMBxLgUxcqA-54" value="Comment input" style="rounded=1;whiteSpace=wrap;html=1;fillColor=#dae8fc;strokeColor=#6c8ebf;" vertex="1" parent="1">
          <mxGeometry x="1030" y="470" width="120" height="60" as="geometry" />
        </mxCell>
        <mxCell id="sOp1A83OYoMBxLgUxcqA-58" value="Comment" style="rounded=1;whiteSpace=wrap;html=1;fillColor=#dae8fc;strokeColor=#6c8ebf;" vertex="1" parent="1">
          <mxGeometry x="900" y="560" width="120" height="60" as="geometry" />
        </mxCell>
        <mxCell id="sOp1A83OYoMBxLgUxcqA-61" value="" style="edgeStyle=orthogonalEdgeStyle;rounded=0;orthogonalLoop=1;jettySize=auto;html=1;fillColor=#dae8fc;strokeColor=#6c8ebf;" edge="1" parent="1" source="sOp1A83OYoMBxLgUxcqA-60" target="sOp1A83OYoMBxLgUxcqA-47">
          <mxGeometry relative="1" as="geometry" />
        </mxCell>
        <mxCell id="sOp1A83OYoMBxLgUxcqA-60" value="News feed" style="rounded=1;whiteSpace=wrap;html=1;fillColor=#dae8fc;strokeColor=#6c8ebf;" vertex="1" parent="1">
          <mxGeometry x="790" y="270" width="120" height="60" as="geometry" />
        </mxCell>
        <mxCell id="sOp1A83OYoMBxLgUxcqA-63" value="Like/share" style="rounded=1;whiteSpace=wrap;html=1;fillColor=#dae8fc;strokeColor=#6c8ebf;" vertex="1" parent="1">
          <mxGeometry x="770" y="470" width="120" height="60" as="geometry" />
        </mxCell>
        <mxCell id="sOp1A83OYoMBxLgUxcqA-65" value="post {&lt;br&gt;id: string,&lt;br&gt;&lt;div style=&quot;&quot;&gt;textContent: string,&lt;/div&gt;&lt;div style=&quot;&quot;&gt;media: media,&lt;/div&gt;&lt;div style=&quot;&quot;&gt;time: datetime,&lt;/div&gt;&lt;div style=&quot;&quot;&gt;comments: comment[],&lt;/div&gt;&lt;div style=&quot;&quot;&gt;user: string&lt;/div&gt;}" style="whiteSpace=wrap;html=1;aspect=fixed;align=left;fillColor=#ffe6cc;strokeColor=#d79b00;" vertex="1" parent="1">
          <mxGeometry x="640" y="750" width="125" height="125" as="geometry" />
        </mxCell>
        <mxCell id="sOp1A83OYoMBxLgUxcqA-66" value="comment: {&lt;br&gt;id:string,&lt;br&gt;textContent: string,&lt;br&gt;user:string,&lt;br&gt;datetime: datetime,&lt;br&gt;media:media&lt;br&gt;}" style="whiteSpace=wrap;html=1;aspect=fixed;align=left;fillColor=#ffe6cc;strokeColor=#d79b00;" vertex="1" parent="1">
          <mxGeometry x="785" y="750" width="125" height="125" as="geometry" />
        </mxCell>
        <mxCell id="sOp1A83OYoMBxLgUxcqA-67" value="user {&lt;br&gt;id:string,&lt;br&gt;name:string&lt;br&gt;metadata:any&lt;br&gt;type:grp/individual&lt;br&gt;}" style="whiteSpace=wrap;html=1;aspect=fixed;align=left;fillColor=#ffe6cc;strokeColor=#d79b00;" vertex="1" parent="1">
          <mxGeometry x="940" y="750" width="125" height="125" as="geometry" />
        </mxCell>
        <mxCell id="sOp1A83OYoMBxLgUxcqA-68" value="media {&lt;br&gt;type: link | video&lt;br&gt;url: string&lt;br&gt;}" style="whiteSpace=wrap;html=1;aspect=fixed;align=left;fillColor=#ffe6cc;strokeColor=#d79b00;" vertex="1" parent="1">
          <mxGeometry x="1090" y="750" width="125" height="125" as="geometry" />
        </mxCell>
        <mxCell id="sOp1A83OYoMBxLgUxcqA-69" value="&lt;b&gt;Data entities&lt;/b&gt;" style="rounded=0;whiteSpace=wrap;html=1;fillColor=#ffe6cc;strokeColor=#d79b00;" vertex="1" parent="1">
          <mxGeometry x="850" y="700" width="160" height="30" as="geometry" />
        </mxCell>
        <mxCell id="sOp1A83OYoMBxLgUxcqA-70" value="&lt;b&gt;Data APIs&lt;/b&gt;" style="rounded=0;whiteSpace=wrap;html=1;fillColor=#e1d5e7;strokeColor=#9673a6;" vertex="1" parent="1">
          <mxGeometry x="70" y="920" width="160" height="30" as="geometry" />
        </mxCell>
        <mxCell id="sOp1A83OYoMBxLgUxcqA-71" value="1. getPosts(userId, apiKey, numOfPosts, minPost)&lt;br&gt;2. createPost(apiKey, userId, postData)&lt;br&gt;3. createComment(apiKey, userId, postId, commentData)&amp;nbsp;" style="rounded=0;whiteSpace=wrap;html=1;align=left;fillColor=#e1d5e7;strokeColor=#9673a6;" vertex="1" parent="1">
          <mxGeometry x="70" y="970" width="240" height="150" as="geometry" />
        </mxCell>
        <mxCell id="sOp1A83OYoMBxLgUxcqA-72" value="&lt;b&gt;Data Store&lt;/b&gt;" style="rounded=0;whiteSpace=wrap;html=1;fillColor=#b0e3e6;strokeColor=#0e8088;" vertex="1" parent="1">
          <mxGeometry x="355" y="920" width="160" height="30" as="geometry" />
        </mxCell>
        <mxCell id="sOp1A83OYoMBxLgUxcqA-73" value="" style="rounded=0;whiteSpace=wrap;html=1;align=left;fillColor=#b0e3e6;strokeColor=#0e8088;" vertex="1" parent="1">
          <mxGeometry x="355" y="970" width="240" height="150" as="geometry" />
        </mxCell>
        <mxCell id="sOp1A83OYoMBxLgUxcqA-74" value="REST" style="rounded=0;whiteSpace=wrap;html=1;fillColor=#e1d5e7;strokeColor=#9673a6;" vertex="1" parent="1">
          <mxGeometry x="70" y="1130" width="90" height="40" as="geometry" />
        </mxCell>
      </root>
    </mxGraphModel>
  </diagram>
</mxfile>
